<svg width="21" height="21" viewBox="0 0 21 21" fill="none" xmlns="http://www.w3.org/2000/svg">
<path d="M7.09 3.27L5.09 1.27H15.89L19.89 5.27V16.07L11.09 7.27H13.89V3.27H7.09ZM21 19.73L19.73 21L17.99 19.27H3.89C3.35957 19.27 2.85086 19.0593 2.47579 18.6842C2.10071 18.3091 1.89 17.8004 1.89 17.27V3.27V3.17L0 1.27L1.28 0L21 19.73ZM6 7.27L3.89 5.16V7.27H6V7.27ZM13.78 15.05L10.11 11.38C8.84 11.73 7.89 12.88 7.89 14.27C7.89 15.93 9.23 17.27 10.89 17.27C12.28 17.27 13.43 16.32 13.78 15.05Z" fill="white"/>
</svg>
