<svg width="54" height="59" viewBox="0 0 64 63" fill="none" xmlns="http://www.w3.org/2000/svg">
  <path d="M56.3728 31.5001C56.3728 35.1417 65.0747 38.6389 63.889 41.893C49.6411 43.6126 59.6964 50.2414 56.3728 53.5043C53.3635 56.4589 49.7534 58.8483 45.7318 60.4914C41.7786 62.1062 37.4282 63 32.8599 63C42.2565 59.1577 23.9409 62.1062 19.9877 60.4914C15.966 58.8483 27.6586 55.0542 24.6493 52.0995C21.5185 49.0257 3.73541 46.7451 2.1189 42.6523C13.9488 33.681 5.00801e-05 35.4267 5.00801e-05 31.5001C5.74364 27.2039 0.817451 23.4816 2.3046 19.8885C6.97441 24.1812 6.33328 12.4542 9.34658 9.49571C12.3558 6.54117 15.966 4.15158 19.9877 2.50857C18.8718 15.5451 28.2912 -2.63555e-05 32.8599 -2.63555e-05C37.4282 -2.63555e-05 32.597 2.07499 36.5501 3.68994C40.5718 5.33295 53.3635 6.54113 56.3728 9.49571C45.7318 15.9769 61.7969 15.9793 63.4149 19.8885C64.9022 23.4816 56.3728 27.3993 56.3728 31.5001Z" fill="url(#paint0_linear)" />
  <defs>
    <linearGradient id="paint0_linear" x1="36.8515" y1="3.4104" x2="36.8515" y2="66.4104" gradientUnits="userSpaceOnUse">
      <stop stop-color="#FF1213" />
      <stop offset="1" stop-color="#5E0909" />
    </linearGradient>
  </defs>
</svg>
