<svg width="20" height="20" viewBox="0 0 20 20" fill="none" xmlns="http://www.w3.org/2000/svg">
<path d="M15.8825 5.88257C16.629 5.88275 17.3475 6.1668 17.8924 6.67713C18.4372 7.18746 18.7676 7.88588 18.8166 8.6308L18.8236 8.82374V9.71432C17.5825 8.68937 16.0038 8.16386 14.396 8.2404C12.7882 8.31695 11.2666 8.99005 10.1284 10.1283C8.99021 11.2665 8.31713 12.7881 8.24058 14.396C8.16404 16.0038 8.68954 17.5825 9.71447 18.8237H8.8239C8.0772 18.8238 7.3584 18.5399 6.81332 18.0296C6.26824 17.5192 5.93768 16.8206 5.88869 16.0755L5.88281 15.8825V8.82374C5.8827 8.07701 6.16661 7.3582 6.67695 6.8131C7.1873 6.268 7.88587 5.93744 8.63097 5.88845L8.8239 5.88257H15.8825Z" fill="white"/>
<path d="M12.5437 1.99442L12.6002 2.1803L13.2766 4.70618H8.23558C7.33536 4.70613 6.46914 5.05009 5.81417 5.66769C5.15919 6.28528 4.76497 7.12983 4.71215 8.02852L4.70627 8.23558V14.5273C4.10532 14.5143 3.52278 14.3175 3.03695 13.9636C2.55113 13.6096 2.18532 13.1154 1.9887 12.5473L1.92753 12.3473L0.100521 5.5297C-0.0930297 4.80848 -0.00500812 4.04064 0.346731 3.38193C0.69847 2.72322 1.28759 2.22297 1.99458 1.98265L2.18046 1.92736L8.99791 0.100306C9.68716 -0.0844643 10.4201 -0.012341 11.0601 0.303236C11.7001 0.618814 12.2035 1.15632 12.4766 1.8156L12.5437 1.99442V1.99442Z" fill="white"/>
<path d="M20 14.7062C20 16.1103 19.4423 17.4569 18.4495 18.4497C17.4567 19.4425 16.1101 20.0003 14.7061 20.0003C13.302 20.0003 11.9555 19.4425 10.9627 18.4497C9.96987 17.4569 9.41211 16.1103 9.41211 14.7062C9.41211 13.3021 9.96987 11.9556 10.9627 10.9627C11.9555 9.96988 13.302 9.41211 14.7061 9.41211C16.1101 9.41211 17.4567 9.96988 18.4495 10.9627C19.4423 11.9556 20 13.3021 20 14.7062V14.7062ZM15.2943 12.3533C15.2943 12.1973 15.2323 12.0476 15.122 11.9373C15.0117 11.827 14.8621 11.765 14.7061 11.765C14.5501 11.765 14.4005 11.827 14.2901 11.9373C14.1798 12.0476 14.1179 12.1973 14.1179 12.3533V14.118H12.3532C12.1972 14.118 12.0476 14.18 11.9373 14.2903C11.827 14.4006 11.765 14.5502 11.765 14.7062C11.765 14.8622 11.827 15.0118 11.9373 15.1222C12.0476 15.2325 12.1972 15.2944 12.3532 15.2944H14.1179V17.0592C14.1179 17.2152 14.1798 17.3648 14.2901 17.4751C14.4005 17.5854 14.5501 17.6474 14.7061 17.6474C14.8621 17.6474 15.0117 17.5854 15.122 17.4751C15.2323 17.3648 15.2943 17.2152 15.2943 17.0592V15.2944H17.0589C17.215 15.2944 17.3646 15.2325 17.4749 15.1222C17.5852 15.0118 17.6472 14.8622 17.6472 14.7062C17.6472 14.5502 17.5852 14.4006 17.4749 14.2903C17.3646 14.18 17.215 14.118 17.0589 14.118H15.2943V12.3533Z" fill="white"/>
</svg>
