<svg width="15" height="19" viewBox="0 0 20 24" fill="none" xmlns="http://www.w3.org/2000/svg">
  <path d="M4.58325 10.8334H6.74992V13.1667H4.58325V10.8334ZM4.58325 15.5H6.74992V17.8334H4.58325V15.5ZM8.91658 10.8334H11.0833V13.1667H8.91658V10.8334ZM8.91658 15.5H11.0833V17.8334H8.91658V15.5ZM13.2499 10.8334H15.4166V13.1667H13.2499V10.8334ZM13.2499 15.5H15.4166V17.8334H13.2499V15.5Z" fill="#B2B6B9" />
  <path d="M2.16667 23.3333H17.3333C18.5283 23.3333 19.5 22.2868 19.5 21V4.66667C19.5 3.37983 18.5283 2.33333 17.3333 2.33333H15.1667V0H13V2.33333H6.5V0H4.33333V2.33333H2.16667C0.97175 2.33333 0 3.37983 0 4.66667V21C0 22.2868 0.97175 23.3333 2.16667 23.3333ZM17.3333 7L17.3344 21H2.16667V7H17.3333Z" fill="#B2B6B9" />
</svg>
