<svg width="30" height="27" viewBox="0 0 27 24" fill="none" xmlns="http://www.w3.org/2000/svg">
  <path d="M23.2073 15.9989C23.1198 15.9052 23.0338 15.8114 22.9495 15.7209C21.7893 14.4736 21.0874 13.7208 21.0874 10.1897C21.0874 8.36156 20.5954 6.86156 19.6256 5.73656C18.9106 4.90547 17.9439 4.275 16.6699 3.80906C16.6535 3.80096 16.6388 3.79032 16.6266 3.77766C16.1684 2.41359 14.9143 1.5 13.5 1.5C12.0857 1.5 10.8322 2.41359 10.3739 3.77625C10.3617 3.78845 10.3472 3.79875 10.3312 3.80672C7.35803 4.89469 5.91311 6.98203 5.91311 10.1883C5.91311 13.7208 5.21227 14.4736 4.05106 15.7195C3.96668 15.81 3.88073 15.9019 3.79319 15.9975C3.56706 16.2399 3.42379 16.5348 3.38034 16.8473C3.33688 17.1598 3.39505 17.4769 3.54797 17.7609C3.87334 18.3703 4.5668 18.7486 5.35834 18.7486H21.6475C22.4353 18.7486 23.124 18.3708 23.4505 17.7642C23.604 17.4801 23.6628 17.1628 23.6197 16.8499C23.5766 16.537 23.4335 16.2417 23.2073 15.9989Z" fill="white" />
  <path d="M13.5 22.5C14.262 22.4994 15.0097 22.3156 15.6637 21.9679C16.3177 21.6202 16.8536 21.1217 17.2146 20.5252C17.2316 20.4966 17.24 20.4646 17.239 20.4322C17.238 20.3999 17.2276 20.3684 17.2088 20.3407C17.19 20.313 17.1635 20.2901 17.1318 20.2742C17.1001 20.2583 17.0643 20.25 17.0279 20.25H9.97312C9.9367 20.2499 9.90086 20.2582 9.8691 20.274C9.83734 20.2899 9.81074 20.3128 9.79189 20.3405C9.77304 20.3682 9.76258 20.3997 9.76153 20.4321C9.76048 20.4645 9.76889 20.4965 9.78592 20.5252C10.1469 21.1216 10.6827 21.6201 11.3366 21.9678C11.9905 22.3155 12.7381 22.4994 13.5 22.5Z" fill="white" />
</svg>
