<svg width="16" height="12" viewBox="0 0 21 17" fill="none" xmlns="http://www.w3.org/2000/svg">
  <path fill-rule="evenodd" clip-rule="evenodd" d="M10.8022 16.6264C10.5274 16.8656 10.155 17 9.76675 17C9.37847 17 9.00607 16.8656 8.73134 16.6264L0.428505 9.38738C0.154119 9.14785 0 8.82316 0 8.48463C0 8.1461 0.154119 7.82141 0.428505 7.58188L8.73134 0.34286C9.00909 0.117207 9.37646 -0.00564025 9.75605 0.000199025C10.1356 0.0060383 10.4978 0.140108 10.7663 0.374164C11.0347 0.608219 11.1885 0.923985 11.1952 1.25494C11.2019 1.58589 11.061 1.90619 10.8022 2.14836L4.99995 7.20715H19.5348C19.9234 7.20715 20.2961 7.34175 20.5709 7.58132C20.8456 7.82089 21 8.14582 21 8.48463C21 8.82344 20.8456 9.14837 20.5709 9.38794C20.2961 9.62751 19.9234 9.7621 19.5348 9.7621H4.99995L10.8022 14.8209C11.0766 15.0604 11.2307 15.3851 11.2307 15.7236C11.2307 16.0622 11.0766 16.3869 10.8022 16.6264Z" fill="white" />
</svg>
