<svg width="12" height="5" viewBox="0 0 15 8" fill="none" xmlns="http://www.w3.org/2000/svg">
  <path d="M0.0849695 0.285876C0.0218601 0.372154 -0.00701523 0.469024 0.00144196 0.566089C0.00989819 0.663154 0.0553675 0.756749 0.132971 0.836827L6.88333 7.77039C6.95235 7.84124 7.0445 7.89913 7.15187 7.93912C7.25925 7.97911 7.37865 8 7.49986 8C7.62107 8 7.74047 7.97911 7.84784 7.93912C7.95522 7.89913 8.04736 7.84124 8.11639 7.77039L14.8667 0.836827C14.9446 0.756811 14.9902 0.663173 14.9986 0.566052C15.007 0.468932 14.9778 0.37203 14.9143 0.285838C14.8508 0.199647 14.7554 0.127451 14.6383 0.0770675C14.5213 0.026684 14.387 3.28455e-05 14.2502 7.24456e-09L0.749504 7.24456e-09C0.612594 -1.60365e-05 0.478289 0.0266158 0.361147 0.0770091C0.244005 0.127402 0.148496 0.199634 0.0849695 0.285876Z" fill="white" />
</svg>
