<svg width="55" height="49" viewBox="0 0 66 60" fill="none" xmlns="http://www.w3.org/2000/svg">
  <path d="M57.4955 30C57.4955 46.5687 57.0021 60 36.7214 60C31.2097 60 25.9817 59.0079 21.2902 57.2304C14.3529 54.6024 8.58886 50.2569 4.81565 44.8622C1.75125 40.4807 0 35.4075 0 30C0 25.3505 13.1006 21.2887 15.4116 17.3608C17.5581 13.7123 8.77552 10.1325 12.4524 7.48523C18.9232 2.82631 27.4184 0 36.7214 0C47.8791 0 57.8741 4.06515 64.6087 10.4814C70.116 15.728 57.4955 22.5466 57.4955 30Z" fill="url(#paint0_linear)" />
  <defs>
    <linearGradient id="paint0_linear" x1="36.7214" y1="0" x2="36.7214" y2="60" gradientUnits="userSpaceOnUse">
      <stop stop-color="#7346FD" />
      <stop offset="1" stop-color="#5D85FA" />
    </linearGradient>
  </defs>
</svg>
