<svg width="50" height="48" viewBox="0 0 62 60" fill="none" xmlns="http://www.w3.org/2000/svg">
  <path d="M54.6111 30.0001C54.6111 33.4683 63.0411 36.799 61.8924 39.8981C60.3401 44.0853 57.8309 47.849 54.6111 50.9565C51.6959 53.7704 48.1986 56.046 44.3026 57.6109C40.473 59.1488 36.2586 60 31.833 60C27.4071 60 23.1927 59.1488 19.3631 57.6109C15.4671 56.046 26.7942 52.4326 23.8789 49.6186C20.846 46.6912 3.61863 44.5192 2.05263 40.6213C0.726089 37.3195 0 33.7398 0 30.0001C0 26.0946 0.791857 22.3635 2.23253 18.9415C3.79992 15.2184 6.13532 11.8612 9.05445 9.04356C11.9697 6.22971 15.4671 3.95391 19.3631 2.38914C23.1927 0.851118 27.4071 0 31.833 0C36.2586 0 31.5783 1.97621 35.4079 3.51425C39.3039 5.07902 51.6959 6.22967 54.6111 9.04356C57.5302 11.8612 59.8657 15.2184 61.4331 18.9415C62.874 22.3635 54.6111 26.0946 54.6111 30.0001Z" fill="url(#paint0_linear)" />
  <defs>
    <linearGradient id="paint0_linear" x1="31.833" y1="0" x2="31.833" y2="60" gradientUnits="userSpaceOnUse">
      <stop stop-color="#BD04B2" />
      <stop offset="1" stop-color="#FF1278" />
    </linearGradient>
  </defs>
</svg>
