<svg width="21" height="20" viewBox="0 0 22 21" fill="none" xmlns="http://www.w3.org/2000/svg">
  <path d="M14.4375 10.5C14.4375 11.3702 14.0753 12.2048 13.4307 12.8202C12.786 13.4355 11.9117 13.7812 11 13.7812C10.0883 13.7812 9.21398 13.4355 8.56932 12.8202C7.92466 12.2048 7.5625 11.3702 7.5625 10.5C7.5625 9.62976 7.92466 8.79516 8.56932 8.17981C9.21398 7.56445 10.0883 7.21875 11 7.21875C11.9117 7.21875 12.786 7.56445 13.4307 8.17981C14.0753 8.79516 14.4375 9.62976 14.4375 10.5V10.5Z" fill="white" />
  <path fill-rule="evenodd" clip-rule="evenodd" d="M0 10.5C0 10.5 4.125 3.28125 11 3.28125C17.875 3.28125 22 10.5 22 10.5C22 10.5 17.875 17.7188 11 17.7188C4.125 17.7188 0 10.5 0 10.5ZM11 15.0938C12.2764 15.0938 13.5004 14.6098 14.403 13.7483C15.3055 12.8868 15.8125 11.7183 15.8125 10.5C15.8125 9.28166 15.3055 8.11322 14.403 7.25173C13.5004 6.39023 12.2764 5.90625 11 5.90625C9.72365 5.90625 8.49957 6.39023 7.59705 7.25173C6.69453 8.11322 6.1875 9.28166 6.1875 10.5C6.1875 11.7183 6.69453 12.8868 7.59705 13.7483C8.49957 14.6098 9.72365 15.0937 11 15.0938V15.0938Z" fill="white" />
</svg>
