<svg width="26" height="24" viewBox="0 0 33 31" fill="none" xmlns="http://www.w3.org/2000/svg">
  <path d="M23.7823 7.45314C23.7823 3.39775 20.5505 0.0797119 16.5604 0.0797119C12.5703 0.0797119 9.3385 3.39775 9.3385 7.45314C9.3385 11.527 12.5703 14.8266 16.5604 14.8266C20.5505 14.8266 23.7823 11.527 23.7823 7.45314ZM4.35538 16.2828C3.53325 16.7652 2.81235 17.4083 2.23391 18.1754C1.65547 18.9425 1.23085 19.8185 0.984338 20.7533C0.737829 21.6881 0.674271 22.6634 0.797299 23.6233C0.920328 24.5832 1.22753 25.509 1.70132 26.3476C2.65931 28.0437 4.23783 29.2819 6.08981 29.7901C7.94179 30.2982 9.91561 30.0346 11.5773 29.0573C12.3989 28.572 13.1188 27.9262 13.6959 27.1568C14.2731 26.3874 14.6961 25.5095 14.9409 24.5731C15.1857 23.6368 15.2474 22.6604 15.1225 21.6997C14.9977 20.7391 14.6887 19.8129 14.2133 18.9741C12.2273 15.4533 7.80384 14.2551 4.35538 16.2828ZM21.5435 29.0573C25.0101 31.085 29.4154 29.8868 31.4195 26.366C33.4055 22.8267 32.232 18.3289 28.7654 16.2828C25.317 14.2551 20.8936 15.4533 18.9075 18.9741C18.4321 19.8129 18.1231 20.7391 17.9983 21.6997C17.8734 22.6604 17.9352 23.6368 18.18 24.5731C18.4247 25.5095 18.8478 26.3874 19.4249 27.1568C20.002 27.9262 20.7219 28.572 21.5435 29.0573Z" fill="#171F25" />
</svg>
