<svg width="18" height="12" viewBox="0 0 22 16" fill="none" xmlns="http://www.w3.org/2000/svg">
  <path d="M21.4098 7.51623C20.4376 3.15823 18.9745 0.832204 16.8042 0.196842C16.348 0.0641559 15.8747 -0.00213249 15.3993 5.22911e-05C14.7709 5.22911e-05 14.2236 0.151848 13.6447 0.312734C12.9471 0.506797 12.1546 0.727219 10.9991 0.727219C9.84353 0.727219 9.05057 0.507251 8.35157 0.313189C7.7722 0.151848 7.22538 5.22911e-05 6.5988 5.22911e-05C6.10718 -0.00163796 5.6177 0.0644394 5.14443 0.196387C2.98555 0.829023 1.52339 3.15414 0.536996 7.51351C-0.523649 12.2046 -0.00157698 15.1665 2.001 15.8537C2.2755 15.9496 2.56432 15.9991 2.85538 16C4.22725 16 5.32731 14.867 6.07902 13.9394C6.92836 12.8895 7.92255 12.3569 10.9991 12.3569C13.7469 12.3569 14.8841 12.7264 15.8664 13.9394C16.4838 14.702 17.0673 15.2356 17.6494 15.5714C18.4236 16.0177 19.1973 16.1168 19.9485 15.8609C21.132 15.4605 21.8104 14.4021 21.9653 12.7141C22.0831 11.4198 21.9016 9.71955 21.4098 7.51623ZM8.79893 7.27172H7.33218V8.72606C7.33218 8.91891 7.25491 9.10387 7.11738 9.24024C6.97984 9.37661 6.79331 9.45322 6.5988 9.45322C6.4043 9.45322 6.21776 9.37661 6.08023 9.24024C5.94269 9.10387 5.86543 8.91891 5.86543 8.72606V7.27172H4.39868C4.20417 7.27172 4.01764 7.19511 3.8801 7.05874C3.74257 6.92237 3.6653 6.73741 3.6653 6.54456C3.6653 6.3517 3.74257 6.16674 3.8801 6.03037C4.01764 5.894 4.20417 5.81739 4.39868 5.81739H5.86543V4.36305C5.86543 4.1702 5.94269 3.98524 6.08023 3.84887C6.21776 3.7125 6.4043 3.63589 6.5988 3.63589C6.79331 3.63589 6.97984 3.7125 7.11738 3.84887C7.25491 3.98524 7.33218 4.1702 7.33218 4.36305V5.81739H8.79893C8.99343 5.81739 9.17997 5.894 9.3175 6.03037C9.45504 6.16674 9.5323 6.3517 9.5323 6.54456C9.5323 6.73741 9.45504 6.92237 9.3175 7.05874C9.17997 7.19511 8.99343 7.27172 8.79893 7.27172ZM12.6492 7.45351C12.4678 7.45351 12.2906 7.40021 12.1398 7.30033C11.9891 7.20045 11.8716 7.05849 11.8022 6.8924C11.7328 6.72631 11.7147 6.54355 11.75 6.36723C11.7854 6.19091 11.8727 6.02894 12.0009 5.90182C12.1291 5.7747 12.2925 5.68813 12.4703 5.65306C12.6481 5.61799 12.8325 5.63599 13 5.70479C13.1675 5.77358 13.3106 5.89009 13.4114 6.03957C13.5121 6.18904 13.5659 6.36478 13.5659 6.54456C13.5659 6.78563 13.4693 7.01682 13.2974 7.18729C13.1255 7.35775 12.8923 7.45351 12.6492 7.45351ZM14.6659 9.45322C14.4845 9.45322 14.3072 9.39986 14.1564 9.29988C14.0056 9.1999 13.8881 9.05781 13.8188 8.89158C13.7495 8.72536 13.7314 8.54248 13.767 8.3661C13.8026 8.18972 13.8901 8.02776 14.0185 7.90073C14.147 7.7737 14.3105 7.68731 14.4885 7.6525C14.6665 7.61768 14.8509 7.63601 15.0183 7.70515C15.1858 7.7743 15.3288 7.89115 15.4293 8.04093C15.5297 8.19071 15.5831 8.36667 15.5827 8.54654C15.582 8.78721 15.4852 9.01783 15.3133 9.1878C15.1415 9.35777 14.9087 9.45323 14.6659 9.45322ZM14.6659 5.45381C14.4846 5.45381 14.3074 5.4005 14.1566 5.30062C14.0059 5.20074 13.8884 5.05878 13.819 4.89269C13.7496 4.7266 13.7315 4.54384 13.7668 4.36752C13.8022 4.1912 13.8895 4.02924 14.0177 3.90212C14.1459 3.775 14.3093 3.68843 14.4871 3.65335C14.6649 3.61828 14.8492 3.63628 15.0167 3.70508C15.1843 3.77388 15.3274 3.89038 15.4282 4.03986C15.5289 4.18933 15.5827 4.36507 15.5827 4.54485C15.5827 4.78592 15.4861 5.01711 15.3142 5.18758C15.1422 5.35804 14.9091 5.45381 14.6659 5.45381ZM16.6827 7.45351C16.5014 7.45351 16.3242 7.40021 16.1734 7.30033C16.0227 7.20045 15.9052 7.05849 15.8358 6.8924C15.7664 6.72631 15.7482 6.54355 15.7836 6.36723C15.819 6.19091 15.9063 6.02894 16.0345 5.90182C16.1627 5.7747 16.326 5.68813 16.5039 5.65306C16.6817 5.61799 16.866 5.63599 17.0335 5.70479C17.201 5.77358 17.3442 5.89009 17.4449 6.03957C17.5457 6.18904 17.5994 6.36478 17.5994 6.54456C17.5994 6.78563 17.5029 7.01682 17.3309 7.18729C17.159 7.35775 16.9258 7.45351 16.6827 7.45351Z" fill="white" />
</svg>
