<svg width="28" height="27" viewBox="0 0 28 27" fill="none" xmlns="http://www.w3.org/2000/svg">
<path d="M14 0C11.2311 0 8.52431 0.791761 6.22202 2.27516C3.91973 3.75856 2.12532 5.86697 1.06569 8.33377C0.00606598 10.8006 -0.271181 13.515 0.269012 16.1337C0.809205 18.7525 2.14258 21.1579 4.10051 23.0459C6.05845 24.934 8.55301 26.2197 11.2687 26.7406C13.9845 27.2615 16.7994 26.9942 19.3576 25.9724C21.9157 24.9506 24.1022 23.2203 25.6406 21.0002C27.1789 18.7801 28 16.17 28 13.5C28 11.7272 27.6379 9.97167 26.9343 8.33377C26.2307 6.69588 25.1995 5.20765 23.8995 3.95406C22.5995 2.70047 21.0561 1.70606 19.3576 1.02763C17.659 0.349188 15.8385 0 14 0ZM14 24.3C11.7849 24.3 9.61945 23.6666 7.77762 22.4799C5.93579 21.2932 4.50026 19.6064 3.65256 17.633C2.80485 15.6595 2.58306 13.488 3.01521 11.393C3.44737 9.29803 4.51406 7.37365 6.08041 5.86325C7.64676 4.35284 9.64241 3.32424 11.815 2.90752C13.9876 2.4908 16.2395 2.70467 18.2861 3.5221C20.3326 4.33953 22.0818 5.72379 23.3125 7.49984C24.5431 9.27589 25.2 11.364 25.2 13.5C25.2 16.3643 24.02 19.1114 21.9196 21.1368C19.8192 23.1621 16.9704 24.3 14 24.3Z" fill="white"/>
<path d="M14 9.45C14.7732 9.45 15.4 8.84558 15.4 8.1C15.4 7.35442 14.7732 6.75 14 6.75C13.2268 6.75 12.6 7.35442 12.6 8.1C12.6 8.84558 13.2268 9.45 14 9.45Z" fill="white"/>
<path d="M14 10.8C13.6287 10.8 13.2726 10.9423 13.0101 11.1955C12.7475 11.4486 12.6 11.792 12.6 12.15V18.9C12.6 19.2581 12.7475 19.6015 13.0101 19.8546C13.2726 20.1078 13.6287 20.25 14 20.25C14.3713 20.25 14.7274 20.1078 14.99 19.8546C15.2525 19.6015 15.4 19.2581 15.4 18.9V12.15C15.4 11.792 15.2525 11.4486 14.99 11.1955C14.7274 10.9423 14.3713 10.8 14 10.8Z" fill="white"/>
</svg>
