<svg width="18" height="22" viewBox="0 0 18 22" fill="none" xmlns="http://www.w3.org/2000/svg">
<path d="M18 4L9 0L0 4V10C0 15.55 3.84 20.74 9 22C11.3 21.44 13.33 20.1 14.88 18.29L11.76 15.17C10.7987 15.8054 9.64722 16.0888 8.50083 15.9721C7.35443 15.8555 6.28364 15.346 5.47 14.53C4.53338 13.592 4.00731 12.3206 4.00731 10.995C4.00731 9.66942 4.53338 8.39803 5.47 7.46C6.40803 6.52338 7.67942 5.99731 9.005 5.99731C10.3306 5.99731 11.602 6.52338 12.54 7.46C13.354 8.27482 13.8621 9.34538 13.9787 10.4912C14.0952 11.637 13.8132 12.7879 13.18 13.75L16.08 16.65C17.29 14.69 18 12.38 18 10V4Z" fill="white"/>
<path d="M9 14C10.6569 14 12 12.6569 12 11C12 9.34315 10.6569 8 9 8C7.34315 8 6 9.34315 6 11C6 12.6569 7.34315 14 9 14Z" fill="white"/>
</svg>
