<svg width="32" height="29" viewBox="0 0 46 37" fill="none" xmlns="http://www.w3.org/2000/svg">
  <path d="M25.3 10.5714H2.3C1.035 10.5714 0 11.7607 0 13.2143C0 14.6679 1.035 15.8571 2.3 15.8571H25.3C26.565 15.8571 27.6 14.6679 27.6 13.2143C27.6 11.7607 26.565 10.5714 25.3 10.5714ZM25.3 0H2.3C1.035 0 0 1.18929 0 2.64286C0 4.09643 1.035 5.28571 2.3 5.28571H25.3C26.565 5.28571 27.6 4.09643 27.6 2.64286C27.6 1.18929 26.565 0 25.3 0ZM36.8 21.1429V13.2143C36.8 11.7607 35.765 10.5714 34.5 10.5714C33.235 10.5714 32.2 11.7607 32.2 13.2143V21.1429H25.3C24.035 21.1429 23 22.3321 23 23.7857C23 25.2393 24.035 26.4286 25.3 26.4286H32.2V34.3571C32.2 35.8107 33.235 37 34.5 37C35.765 37 36.8 35.8107 36.8 34.3571V26.4286H43.7C44.965 26.4286 46 25.2393 46 23.7857C46 22.3321 44.965 21.1429 43.7 21.1429H36.8ZM2.3 26.4286H16.1C17.365 26.4286 18.4 25.2393 18.4 23.7857C18.4 22.3321 17.365 21.1429 16.1 21.1429H2.3C1.035 21.1429 0 22.3321 0 23.7857C0 25.2393 1.035 26.4286 2.3 26.4286Z" fill="white" />
</svg>
