<svg width="35" height="61" viewBox="0 0 35 61" fill="none" xmlns="http://www.w3.org/2000/svg">
<path d="M27.5727 48.7394L27.4015 48.3207C27.3065 47.9992 27.0565 47.7633 26.9669 47.4389C27.0321 47.2121 27.2362 47.1466 27.3938 47.0273C27.5052 46.9824 27.6019 46.904 27.672 46.8017C27.6899 46.7627 27.7097 46.7248 27.7314 46.6881C27.7555 46.651 27.7846 46.618 27.8179 46.5901C27.9072 46.5078 28.0744 46.4477 28.0065 46.2925C27.9289 46.1163 27.8071 45.9471 27.5727 46.0302C27.4857 46.0899 27.4237 46.1875 27.3169 46.2155C27.275 46.2212 27.2323 46.2187 27.1912 46.2081C27.1164 46.1687 27.0344 46.1472 26.9509 46.145C26.8675 46.1429 26.7846 46.1602 26.7081 46.1957C26.6616 46.1942 26.6163 46.18 26.5765 46.1546C26.2454 45.7256 25.9983 45.2309 25.8497 44.6994C24.6146 41.6893 23.3351 38.7003 22.1132 35.6841C20.5819 32.0615 19.0953 28.4175 17.5582 24.7974C17.4806 24.6146 17.3642 24.4248 17.5051 24.2145C18.2132 25.2025 18.9315 26.1855 19.6277 27.1842C23.6588 32.9691 27.6871 38.7561 31.7128 44.5454C32.7005 45.9648 33.6882 47.384 34.6759 48.8032C34.7271 48.8888 34.7721 48.9784 34.8106 49.0712C34.7089 49.4379 34.4315 49.4536 34.1459 49.4375C33.4167 49.3964 32.6934 49.2898 31.9666 49.2177C30.7073 49.0942 29.4485 48.9707 28.187 48.874C27.9745 48.8891 27.7621 48.8426 27.5727 48.7394Z" fill="white"/>
<path d="M7.1316 45.2189L6.83824 46.255C6.3819 46.6095 5.82038 46.6951 5.31087 46.9108C4.6019 47.2109 3.87508 47.4645 3.15176 47.7263C2.33685 48.077 1.47072 48.282 0.662795 48.6615C0.563565 48.723 0.453214 48.7614 0.338988 48.7744C0.224763 48.7874 0.109241 48.7746 0 48.7369C0.833922 46.5419 1.66163 44.3445 2.50292 42.1529C4.06418 38.0846 5.62933 34.0182 7.19835 29.9538C7.333 29.6043 7.47853 29.2597 7.619 28.9127C7.98804 29.0609 7.78975 29.4067 7.85183 29.6624C7.76375 31.1616 7.71174 32.6633 7.60348 34.1618C7.54992 34.9028 7.50841 35.6437 7.48357 36.3847C7.40596 38.7336 7.24298 41.0776 7.09862 43.4212C7.06438 44.0204 7.07541 44.6215 7.1316 45.2189Z" fill="white"/>
<path d="M10.7832 32.1191C12.3411 33.9913 13.8986 35.864 15.4558 37.737C15.8508 38.2133 16.2319 38.7048 16.6164 39.1893C16.6244 39.3016 16.6093 39.4145 16.5721 39.52C16.535 39.6255 16.4768 39.7213 16.4014 39.8006C15.3766 41.1863 14.3149 42.5406 13.2776 43.9172C12.98 44.3116 12.8698 44.2803 12.5989 43.8411C12.4177 43.5128 12.2791 43.1601 12.1868 42.7925C11.3812 40.1452 10.5182 37.5184 9.68155 34.8817C9.24577 33.5064 8.77157 32.1446 8.37693 30.7549C8.31695 30.6117 8.30516 30.4509 8.34355 30.2996C8.51585 30.1168 8.68931 29.8962 8.96444 30.0649C9.21784 30.2201 9.30476 30.4651 9.11966 30.8319C9.64779 30.638 9.84337 31.0006 10.07 31.3057L10.1589 31.4074C10.3491 31.6616 10.5578 31.8996 10.7832 32.1191V32.1191Z" fill="white"/>
<path d="M17.6148 19.7657L17.602 20.0847C17.4914 20.2168 17.6152 20.4112 17.4953 20.5408C17.1892 20.6437 17.1073 20.8491 17.1236 21.1954C17.1375 21.4835 17.3316 21.8832 16.8981 22.0619C16.6141 21.6712 16.6176 21.1834 16.5101 20.7364C16.1833 19.3606 15.8892 17.9762 15.6047 16.5897C15.252 14.976 14.8814 13.3669 14.5523 11.7474C14.5062 11.5132 14.4774 11.2755 14.4662 11.0365L18.1884 1.38025C18.5353 1.20324 18.6777 1.32098 18.6401 1.72275C18.5392 2.79965 18.514 3.88272 18.427 4.96126C18.3509 5.76229 18.3191 6.56735 18.3316 7.37233C18.3606 7.55999 18.348 7.75226 18.2947 7.93384C18.1356 10.5506 17.9773 13.1674 17.8197 15.7841C17.7681 16.6626 17.7386 17.5427 17.6994 18.4224C17.5718 18.8633 17.7216 19.324 17.6148 19.7657Z" fill="white"/>
<path d="M22.2136 35.6569C23.2842 38.2231 24.3479 40.7939 25.4305 43.3548C25.8341 44.3074 26.2905 45.234 26.7231 46.173C26.9172 46.3677 26.9249 46.5435 26.6742 46.6888C26.5308 46.7525 26.3703 46.7576 26.2236 46.7031C26.0769 46.6486 25.9545 46.5384 25.8799 46.3937C25.7769 46.1988 25.617 46.0447 25.4243 45.9544L25.2435 45.924C24.5613 45.1867 23.9544 44.3799 23.3386 43.5829C23.07 43.2354 22.7355 42.9609 22.4775 42.6077C22.4616 42.4803 22.4239 42.3571 22.3661 42.2442C21.3026 40.914 20.2339 39.5884 19.16 38.2676C18.8436 38.0852 18.6052 37.7809 18.4941 37.4175L15.9958 34.2169C16.1433 34.0485 16.3226 34.0958 16.4956 34.1419C18.3234 34.6281 20.1433 35.1521 21.9874 35.5655C22.0669 35.5823 22.136 35.6371 22.2136 35.6569Z" fill="white"/>
<path d="M8.40477 30.2556C8.66049 31.1238 8.90341 31.9965 9.17427 32.8597C9.8262 34.9353 10.4937 37.0055 11.1502 39.0786C11.6008 40.498 12.0428 41.9191 12.5014 43.3368C12.5891 43.6081 12.7265 43.8608 12.8895 44.2301C13.3854 43.5599 13.8142 42.97 14.2535 42.3892C14.9438 41.4765 15.6431 40.5721 16.3334 39.6599C16.4363 39.5088 16.5313 39.3519 16.6179 39.1898L16.6295 39.2112C16.6839 39.3921 16.698 39.5838 16.6706 39.7714C16.6735 42.9961 16.6743 46.2207 16.673 49.4454C16.6633 49.5903 16.7017 49.8204 16.4545 49.6319C16.2927 49.488 16.1517 49.3197 16.0358 49.1325C15.0893 47.8222 14.212 46.4568 13.2632 45.1502C13.1487 44.9929 13.0893 44.776 12.8829 44.706C12.7692 44.3945 12.6297 44.0944 12.4661 43.809C11.4471 42.327 10.4094 40.8603 9.37568 39.3886C9.02177 39.0593 9.02915 38.5834 8.96629 38.1499C8.60928 35.68 8.30659 33.201 7.93523 30.7323C7.88401 30.391 7.8747 30.0461 7.81882 29.7068C7.8518 29.5101 7.70745 29.1886 7.96938 29.1528C8.18824 29.1227 8.22122 29.4496 8.29301 29.6467C8.32876 29.7753 8.37729 29.8995 8.43776 30.0172C8.45259 30.0565 8.45735 30.0993 8.45156 30.1411C8.44576 30.183 8.42962 30.2225 8.40477 30.2556Z" fill="white"/>
<path d="M22.2136 35.6569C21.5272 35.5247 20.8337 35.4235 20.157 35.2534C18.8632 34.9291 17.5787 34.5643 16.2889 34.2214C16.192 34.2076 16.094 34.2055 15.9967 34.2153L15.9222 34.1173C15.7402 33.473 15.9932 32.8584 16.0491 32.2327C16.1655 30.9129 16.3921 29.6068 16.5799 28.2965C16.6851 27.241 16.8585 26.197 17.0246 25.1506C17.0169 24.773 17.0949 24.399 17.252 24.0601C17.2689 24.0355 17.2941 24.0187 17.3223 24.0133C17.3506 24.0078 17.3797 24.0141 17.4037 24.0309L17.5046 24.2099C17.8973 25.1893 18.2807 26.1727 18.6843 27.1475C19.8562 29.986 21.0327 32.8225 22.2136 35.6569Z" fill="white"/>
<path d="M15.7382 16.5523L16.924 22.0471C17.0423 22.1871 17.1322 22.3514 17.1883 22.5298C17.2444 22.7081 17.2654 22.8968 17.25 23.0841C17.2875 23.3698 17.2841 23.6598 17.2399 23.9444C17.1175 24.061 16.9632 24.1331 16.7995 24.1503C14.489 24.5821 12.1704 24.9625 9.8619 25.4067C9.78144 25.4188 9.70023 25.4245 9.61897 25.4235C9.43045 25.4245 9.24613 25.4826 9.08774 25.5911L9.06445 25.1597C9.24181 24.7985 9.46193 24.4629 9.71948 24.161C10.7587 22.7718 11.8015 21.3859 12.848 20.0033C13.6578 18.9268 14.4564 17.8408 15.2612 16.7606C15.373 16.6083 15.498 16.4066 15.7382 16.5523Z" fill="white"/>
<path d="M3.12184 47.6164L6.83822 46.255L13.465 59.5421L13.3905 59.6088L12.8922 59.1629C11.8297 57.8769 10.7036 56.6518 9.63257 55.3757C8.27051 53.7476 6.82657 52.1989 5.48042 50.5544C5.42552 50.5027 5.38088 50.4399 5.3491 50.3697C5.31731 50.2996 5.29904 50.2234 5.29532 50.1456C5.31045 50.0147 5.3477 49.8652 5.13117 49.9332C4.69752 49.6721 4.32453 49.3113 4.03959 48.8773C3.76158 48.5234 3.462 48.1892 3.1428 47.8769C3.07916 47.7954 3.02793 47.7131 3.12184 47.6164Z" fill="white"/>
<path d="M23.7464 20.1753C24.5028 22.4295 25.259 24.6838 26.015 26.938C26.2218 27.5555 26.4139 28.1808 26.6125 28.8024C26.7006 29.0956 26.7319 29.4046 26.7045 29.7109C26.6874 29.8472 26.6634 29.99 26.8031 30.0793C27.1135 30.2769 27.1217 30.6108 27.1523 30.936C27.5464 31.9277 27.8914 32.9405 28.1861 33.9703C28.2847 34.3149 28.4659 34.701 28.0371 34.969C27.71 34.8998 27.6366 34.5866 27.5167 34.333C26.3983 31.9672 25.2377 29.6249 24.0689 27.2871C23.5776 26.2007 23.06 25.1296 22.5272 24.0646C21.5182 22.0405 20.5687 19.9826 19.5652 17.9548C19.4862 17.785 19.416 17.6107 19.3548 17.4328C19.3331 17.3163 19.2664 17.1809 19.3653 17.0928C19.4794 16.9919 19.5721 17.1274 19.6606 17.1879C20.0025 17.4209 20.3308 17.6774 20.6595 17.9289C21.6703 18.7073 22.7495 19.3775 23.7464 20.1753Z" fill="white"/>
<path d="M27.5727 48.7394C28.083 48.7468 28.5956 48.7241 29.1032 48.7678C30.0015 48.8448 30.896 48.9683 31.7931 49.0601C32.5793 49.1399 33.3659 49.221 34.154 49.2609C34.3802 49.2332 34.6009 49.1679 34.8079 49.0675C34.9169 49.2078 35.154 49.298 34.8533 49.524C31.9504 51.7077 29.0513 53.8983 26.1559 56.0957C26.1229 56.1204 26.0674 56.1113 26.022 56.1179C25.6511 55.9533 25.7678 55.628 25.8377 55.365C26.2126 53.9567 26.5215 52.5307 26.88 51.1179C27.09 50.4865 27.2292 49.831 27.2948 49.165L27.5727 48.7394Z" fill="white"/>
<path d="M25.1786 45.9586C23.1 48.0504 21.0213 50.1421 18.9427 52.2339C17.5594 53.6239 16.1737 55.0112 14.7855 56.3958C14.657 56.5242 14.5138 56.6349 14.3753 56.7539C14.0501 56.5481 14.2119 56.2644 14.2946 56.0224C14.7175 54.7874 15.2011 53.5751 15.6279 52.3401C15.9194 51.4958 16.1976 50.6449 16.5635 49.8315C16.6186 49.7286 16.7288 49.7389 16.8134 49.6961L17.0051 49.4696C18.0562 49.0989 19.0807 48.6483 20.0707 48.1215C21.5911 47.4122 23.1258 46.737 24.6377 46.0059C24.8014 45.9253 24.9835 45.7787 25.1786 45.9586Z" fill="white"/>
<path d="M9.08777 25.5895L9.47582 25.2791C9.53829 25.3903 9.62146 25.487 9.72026 25.563C9.81906 25.6391 9.93143 25.6931 10.0505 25.7216C11.1891 26.1855 12.3423 26.6104 13.4735 27.0916C14.2271 27.4119 15.0028 27.6819 15.7265 28.0796C16.0478 28.1946 16.3817 28.2652 16.72 28.2895C16.5459 29.5914 16.3714 30.8932 16.1965 32.1949C16.1092 32.8375 16.0129 33.4784 15.9202 34.1198C14.9568 32.9315 13.9936 31.743 13.0308 30.5544C11.7354 28.9476 10.443 27.3382 9.15334 25.7261C9.12662 25.6834 9.10463 25.6375 9.08777 25.5895V25.5895Z" fill="white"/>
<path d="M16.6284 49.7874C16.4343 50.3724 16.2485 50.9615 16.0409 51.5411C15.4949 53.0687 14.9326 54.5898 14.3959 56.1208C14.3578 56.3292 14.3507 56.5427 14.3749 56.7535L14.0979 57.019C14.053 56.9391 14.0192 56.8527 13.9978 56.7625C13.6229 52.7434 13.2509 48.7238 12.8817 44.7039C12.9562 44.7039 13.0723 44.6746 13.0998 44.7137C13.8169 45.7281 14.5212 46.7523 15.2341 47.7686C15.6873 48.4137 16.1526 49.0493 16.6128 49.6894C16.6447 49.7065 16.6576 49.7266 16.6516 49.7499C16.6457 49.7733 16.6379 49.7858 16.6284 49.7874Z" fill="white"/>
<path d="M23.7465 20.1753C23.5531 20.105 23.3661 20.0164 23.1877 19.9106C21.923 19.0029 20.6653 18.0833 19.3219 17.1056L19.658 17.8988C19.3976 18.3072 19.6362 18.8485 19.3324 19.2948C19.2658 19.1797 19.225 19.0501 19.2131 18.9157C19.2012 18.7813 19.2185 18.6458 19.2637 18.5196C19.3382 17.0554 19.4069 15.5911 19.4888 14.1276C19.573 12.6288 19.6684 11.1308 19.7627 9.63279C19.7754 9.28426 19.8367 8.93965 19.9447 8.61023C20.2695 9.56198 20.6013 10.5113 20.9176 11.4663C21.8398 14.2513 22.7582 17.0378 23.6727 19.8258C23.7038 19.9407 23.7284 20.0574 23.7465 20.1753Z" fill="white"/>
<path d="M27.2951 49.1642C27.3312 49.3054 27.4243 49.4622 27.3945 49.5853C26.9245 51.5078 26.4306 53.4232 25.9672 55.3485C25.947 55.6066 25.9656 55.8664 26.0223 56.1183C25.3087 56.6843 24.6021 57.2611 23.8795 57.8148C22.5989 58.7966 21.3098 59.7664 20.0207 60.7375C19.8903 60.8339 19.7332 60.8812 19.5745 60.8717L27.2951 49.1642Z" fill="white"/>
<path d="M25.1783 45.959C24.3277 46.3316 23.4709 46.6881 22.6276 47.08C20.9831 47.8448 19.3501 48.6377 17.7032 49.3964C17.4753 49.4582 17.2397 49.4828 17.0048 49.4692L22.4763 42.6065C22.9206 43.0622 23.3812 43.5018 23.8046 43.9781C24.2974 44.533 24.76 45.1184 25.2276 45.6976C25.2664 45.7437 25.2388 45.8462 25.2423 45.9228C25.2408 45.9299 25.2379 45.9367 25.2337 45.9425C25.2296 45.9483 25.2243 45.9531 25.2182 45.9566C25.2121 45.96 25.2054 45.962 25.1985 45.9624C25.1916 45.9629 25.1847 45.9617 25.1783 45.959V45.959Z" fill="white"/>
<path d="M7.90888 29.6369C8.10485 30.9583 8.30702 32.2785 8.49522 33.6007C8.6811 34.9069 8.84447 36.2164 9.03578 37.5218C9.12736 38.1471 9.26046 38.7654 9.37454 39.3866C9.27404 39.4932 9.1258 39.5809 9.0804 39.7093C8.4731 41.4383 7.88056 43.1701 7.28179 44.9007C7.23772 45.0098 7.1877 45.116 7.132 45.2189C7.03566 45.0263 6.97158 44.8173 6.94263 44.6014C7.02024 42.8725 7.12501 41.1411 7.22008 39.4109C7.25578 38.7596 7.29421 38.1084 7.32176 37.4563C7.39122 35.8097 7.44554 34.1593 7.5247 32.5119C7.57049 31.5531 7.65198 30.5965 7.71873 29.6389C7.73053 29.6246 7.74508 29.613 7.76139 29.605C7.7777 29.5971 7.79541 29.5929 7.81337 29.5927C7.83133 29.5925 7.84913 29.5963 7.86559 29.6039C7.88205 29.6116 7.89681 29.6228 7.90888 29.6369V29.6369Z" fill="white"/>
<path d="M19.264 18.52V19.1181L19.3657 19.1231C19.3463 18.8598 19.3506 18.5952 19.3785 18.3327C19.4076 18.1751 19.5605 18.0446 19.6579 17.8997C20.6987 20.0362 21.7387 22.1729 22.7782 24.31C23.2493 25.2839 23.7022 26.2682 24.1632 27.2476C23.8485 27.2937 23.6634 27.0384 23.4449 26.8816C22.3697 26.1085 21.3025 25.3232 20.2431 24.5257C20.1367 24.4461 20.0218 24.38 19.9008 24.3289C19.5726 24.1158 19.3071 23.8095 19.1344 23.4447C19.0753 22.8883 19.0652 22.3272 19.1042 21.7688C19.0933 21.1032 19.2396 20.4437 19.1817 19.7752L19.264 18.52Z" fill="white"/>
<path d="M5.36706 50.1081C5.60688 50.4473 5.82302 50.8079 6.09156 51.1216C7.02288 52.2026 7.97865 53.2622 8.91386 54.3379C9.73769 55.2876 10.546 56.2525 11.3625 57.21C11.7959 57.718 12.236 58.2194 12.662 58.7331C12.7526 58.8674 12.8299 59.0113 12.8925 59.1625C11.8801 58.3618 10.8627 57.5681 9.85605 56.7596C8.09274 55.343 6.3328 53.9214 4.57622 52.4949C4.57622 52.2067 4.39771 52.1726 4.18622 52.1837L3.68176 51.7696C3.67439 51.5226 3.92817 51.5279 4.02131 51.3768C4.1028 51.2945 4.17653 51.1936 4.30459 51.1945C4.60416 51.3056 4.68371 51.6514 4.94952 51.8671C4.98833 51.6975 4.84397 51.4843 5.05158 51.3875C5.22659 51.3052 5.40082 51.3793 5.66159 51.3727C5.24948 51.1706 4.71552 51.1727 4.86686 50.4938C4.75317 50.6951 4.85135 50.9808 4.62007 51.0319C4.4373 51.073 4.31312 50.8701 4.18584 50.74C4.06943 50.621 3.96038 50.493 3.84591 50.3695C3.75892 50.3045 3.68523 50.2215 3.62928 50.1255C3.57332 50.0295 3.53626 49.9225 3.52033 49.8109C3.41051 49.3408 3.26189 48.8814 3.16604 48.4071C3.12723 48.2075 3.04962 48.0017 3.20834 47.8164C3.49123 48.1046 3.77917 48.3886 4.05546 48.6838C4.42644 49.0798 4.78849 49.4849 5.15403 49.8862C5.20366 49.9025 5.2489 49.9311 5.28597 49.9697C5.32303 50.0083 5.35084 50.0558 5.36706 50.1081V50.1081Z" fill="white"/>
<path d="M3.20842 47.8193C3.37567 48.564 3.53516 49.3108 3.72026 50.0505C3.74548 50.151 3.90147 50.2152 3.99693 50.2955C3.84171 50.4865 3.94649 50.6297 4.06213 50.7866C4.1603 50.9199 4.36869 51.0068 4.27052 51.2439L4.1153 51.4551C3.84017 51.3209 3.57202 51.4913 3.29806 51.474C2.25886 50.6569 1.21849 49.8422 0.183556 49.0189C0.109298 48.936 0.0479957 48.8411 0.00195312 48.7377L3.12344 47.6164L3.20842 47.8193Z" fill="white"/>
<path d="M19.2563 23.5295L19.9521 24.2351C20.5221 25.0955 21.1208 25.9332 21.7111 26.7779C22.6304 28.0952 23.5578 29.403 24.4787 30.7166C25.1857 31.7252 25.8644 32.7609 26.5481 33.7901C27.2975 34.9184 28.1151 35.9937 28.9048 37.0907C28.9624 37.1516 29.0291 37.2018 29.1023 37.2394C29.4787 37.6378 29.5974 38.1862 29.8396 38.6641L30.0507 39.1717L29.9599 39.2351C29.5536 38.6612 29.145 38.0907 28.741 37.5135C25.5202 32.8909 22.3007 28.2673 19.0824 23.6427C19.0757 23.6269 19.0719 23.6099 19.0712 23.5925C19.091 23.434 19.1565 23.4254 19.2563 23.5295Z" fill="white"/>
<path d="M9.7707 24.2354L9.06445 25.158C9.61743 23.6855 10.1653 22.2105 10.7241 20.7405C11.9457 17.5274 13.1709 14.3156 14.3998 11.1052C14.4106 11.0772 14.4444 11.0591 14.4677 11.0365L14.6617 11.6676C13.8208 13.4035 13.2341 15.2523 12.5274 17.0479C11.7063 19.1334 10.9337 21.2398 10.1017 23.3199C10.0182 23.6353 9.90741 23.9418 9.7707 24.2354V24.2354Z" fill="white"/>
<path d="M29.8395 38.664L29.0634 37.3229C28.6291 36.6637 28.2577 35.9604 27.9544 35.2234C27.9289 35.1784 27.9181 35.1258 27.9238 35.0736C27.9295 35.0215 27.9513 34.9728 27.9858 34.9352C28.0467 34.7389 28.1903 34.5236 28.1531 34.3498C28.0357 33.8545 27.8884 33.3678 27.7119 32.8926C27.488 32.2521 27.2423 31.6202 27.006 30.9842C27.0458 30.9441 27.0987 30.9217 27.1536 30.9217C27.2086 30.9217 27.2614 30.9441 27.3013 30.9842C28.1431 33.475 28.9839 35.9659 29.8236 38.457C29.8373 38.525 29.8427 38.5946 29.8395 38.664Z" fill="white"/>
<path d="M18.2963 7.93428C18.3886 6.00567 18.4903 4.07788 18.5625 2.14845C18.573 1.86029 18.8248 1.35147 18.1899 1.3807L18.6692 0C18.6692 1.11394 18.7049 2.19166 18.6602 3.26527C18.6024 4.6579 18.4825 6.04765 18.384 7.43823C18.3637 7.60522 18.3344 7.77084 18.2963 7.93428V7.93428Z" fill="white"/>
<path d="M17.5015 20.4943C17.4772 21.2929 17.4528 22.0914 17.4285 22.8897C17.42 23.2704 17.4112 23.651 17.4021 24.0317L17.3032 24.0383C17.2256 24.0506 17.1926 24.0181 17.2104 23.9345C17.115 23.3055 17.0196 22.6766 16.9244 22.0479C16.9961 21.7374 17.0188 21.4165 16.9916 21.0982C16.8511 20.5425 17.0789 20.4548 17.5015 20.4943Z" fill="white"/>
<path d="M16.6284 49.7875C16.6233 49.7549 16.6186 49.7224 16.6144 49.6899C16.619 46.1968 16.6237 42.7038 16.6284 39.2108C16.6673 39.3882 16.6933 39.5687 16.706 39.7505C16.7102 42.8712 16.706 45.992 16.7126 49.1132C16.7291 49.3101 16.7625 49.5051 16.8123 49.6957L16.6284 49.7875Z" fill="white"/>
<path d="M18.9532 23.4122C18.9908 22.4739 19.0283 21.5353 19.0658 20.5964L19.1822 19.7731C19.2028 20.4371 19.2288 21.1011 19.2423 21.7656C19.2544 22.3526 19.252 22.9404 19.2563 23.5279L19.0704 23.5913L18.9532 23.4122Z" fill="white"/>
<path d="M8.40486 30.2555L8.39204 30.0555C8.25506 29.7772 8.36255 29.6105 8.61323 29.5088L10.0688 31.3036C9.78088 31.1801 9.63498 30.6199 9.17941 30.9694C9.09108 30.9009 9.02176 30.8085 8.97877 30.7018C8.95588 30.561 9.07074 30.3762 9.02068 30.263C8.89961 29.9896 8.71529 30.1345 8.5492 30.2473C8.51389 30.2716 8.45336 30.2539 8.40486 30.2555Z" fill="white"/>
<path d="M8.61355 29.5092L8.39236 30.0559L7.93407 29.1712C7.92398 29.3573 7.91661 29.4973 7.90924 29.6373L7.71715 29.6401C7.68482 29.3981 7.65235 29.156 7.61975 28.914C7.67447 28.4797 7.8196 28.4574 8.0633 28.7962C8.23869 29.0399 8.42962 29.2717 8.61355 29.5092Z" fill="white"/>
<path d="M26.9149 47.8107C26.7763 47.1611 26.2684 46.856 25.8225 46.4933L25.4236 45.9537C25.5807 46.0342 25.7297 46.1314 25.8683 46.2439C26.0895 46.4616 26.2684 46.7486 26.6347 46.5852C26.7123 46.8754 26.9921 47.0614 27.003 47.3866L27.4007 48.3211L26.9149 47.8107Z" fill="white"/>
<path d="M27.2998 30.9879H27.0045C26.9451 30.6915 27.1783 30.2267 26.6056 30.216C26.5749 30.216 26.5182 30.0155 26.5237 29.9114C26.5419 29.5409 26.5815 29.1737 26.6129 28.8044L27.2998 30.9879Z" fill="white"/>
<path d="M3.29614 51.474C3.56778 51.4102 3.8301 50.9492 4.11337 51.4551L3.68264 51.7704L3.29614 51.474Z" fill="white"/>
<path d="M4.18555 52.1845L4.61977 52.0322L4.57553 52.4957L4.18555 52.1845Z" fill="white"/>
<path d="M17.6147 19.7657C17.6435 19.3178 17.6721 18.87 17.7005 18.4224L17.6147 19.7657Z" fill="white"/>
<path d="M10.7836 32.1187L10.1581 31.4058L10.7836 32.1187Z" fill="white"/>
<path d="M27.0038 47.3862L26.6351 46.5848L26.7228 46.1731C26.9376 46.1924 27.1371 46.2985 27.2801 46.4696C27.4232 46.6406 27.4987 46.8634 27.4912 47.0919L27.0038 47.3862Z" fill="white"/>
<path d="M27.4822 45.9434C27.8998 45.5124 28.0461 46.0793 28.1419 46.2394C28.3177 46.5304 28.0123 46.6124 27.788 46.6663C27.7989 46.3715 27.2944 46.3209 27.4822 45.9434Z" fill="white"/>
<path d="M27.4899 47.0886L26.7216 46.1694C26.8613 45.9932 27.006 45.8553 27.1985 46.1031C27.3909 46.3509 27.5644 46.6169 27.7658 46.8577L27.4899 47.0886Z" fill="white"/>
<path d="M27.4823 45.9434L27.8866 46.4415L27.7892 46.6662L27.7768 46.7877C27.4687 46.7012 27.3853 46.4242 27.2983 46.1508L27.4823 45.9434Z" fill="white"/>
<path d="M27.2979 46.1505L27.7763 46.7873C27.7756 46.8113 27.772 46.8351 27.7655 46.8581L27.1981 46.1035L27.2979 46.1505Z" fill="white"/>
<path d="M9.77075 24.2355C9.8992 23.7773 9.99387 23.3047 10.1623 22.8634C10.7211 21.3987 11.3226 19.953 11.8763 18.4863C12.3156 17.3221 12.6873 16.1291 13.1286 14.9658C13.503 13.9778 13.9276 13.0129 14.3455 12.043C14.4333 11.9012 14.5404 11.774 14.6633 11.6655L15.7386 16.5502C15.5672 16.6651 15.4085 16.8002 15.2655 16.9528C13.4805 19.3355 11.7012 21.722 9.92752 24.1124C9.88076 24.1607 9.82803 24.2022 9.77075 24.2355V24.2355Z" fill="white"/>
<path d="M17.2105 23.9341L17.3033 24.0379L16.7212 28.2878C16.3944 28.3141 16.0657 28.2902 15.7452 28.217C14.1232 27.5728 12.5167 26.8841 10.9043 26.2118C10.4837 26.0365 10.0529 25.8825 9.64508 25.6804C9.5504 25.6331 9.53099 25.4174 9.47705 25.279C10.7673 25.0588 12.058 24.841 13.3475 24.6171C14.637 24.3932 15.9226 24.1618 17.2105 23.9341Z" fill="white"/>
<path d="M5.36707 50.1081L5.15442 49.8895L5.3826 49.7216L5.36707 50.1081Z" fill="white"/>
<path d="M27.9842 34.9369L29.0614 37.3246C28.7681 37.0207 28.4899 36.7008 28.2279 36.3662C27.1064 34.7876 25.9953 33.2006 24.8946 31.605C23.9772 30.277 23.0839 28.9292 22.1677 27.6016C21.5562 26.7149 20.9151 25.8504 20.3051 24.9633C20.1694 24.7315 20.0518 24.4884 19.9535 24.2363C20.7711 24.8126 21.5907 25.389 22.406 25.9719C22.9954 26.3926 23.5787 26.8228 24.1646 27.248C24.6804 28.2772 25.1988 29.3063 25.7106 30.3355C26.4707 31.8679 27.2286 33.4017 27.9842 34.9369Z" fill="white"/>
<path d="M4.27055 51.2439C4.13007 51.0661 3.99619 50.8816 3.84795 50.7112C3.6256 50.456 3.70981 50.3378 3.99736 50.2954L4.60232 51.0364L4.82895 50.1382L4.96477 50.1707C4.98375 50.2502 4.99249 50.332 4.99077 50.414C4.92208 50.8697 5.06178 51.1295 5.53132 51.1616C5.6652 51.1706 5.79132 51.3044 5.91938 51.381C5.7659 51.4291 5.60919 51.4648 5.45061 51.4876C5.31057 51.4847 5.17113 51.4675 5.03423 51.4361C5.02138 51.483 5.01472 51.5314 5.01444 51.5802C5.05324 51.7387 5.09438 51.8956 5.13513 52.0532C4.98154 51.9851 4.83616 51.8977 4.70206 51.7931C4.54649 51.6207 4.40231 51.4373 4.27055 51.2439Z" fill="white"/>
<path d="M26.9843 46.5996C27.0578 46.7196 27.1245 46.8443 27.1837 46.973C27.1911 46.9915 27.1061 47.0524 27.0627 47.094C26.9824 46.9991 26.9077 46.8992 26.8387 46.7947C26.829 46.7787 26.9039 46.705 26.9843 46.5996Z" fill="white"/>
</svg>
