<svg width="23" height="24" viewBox="0 0 29 30" fill="none" xmlns="http://www.w3.org/2000/svg">
  <path fill-rule="evenodd" clip-rule="evenodd" d="M21.5366 20.2131C23.4005 17.7619 24.279 14.6785 23.9932 11.5902C23.7075 8.50188 22.279 5.64057 19.9984 3.58841C17.7179 1.53624 14.7565 0.447373 11.7168 0.543318C8.67709 0.639262 5.78739 1.91281 3.63558 4.10488C1.48189 6.29847 0.229256 9.24718 0.132947 12.3501C0.0366383 15.453 1.1039 18.4767 3.11724 20.8048C5.13059 23.133 7.93849 24.5905 10.9687 24.8802C13.999 25.17 17.0235 24.2703 19.426 22.3644L19.4903 22.433L25.831 28.9022C25.9699 29.0438 26.1347 29.1562 26.3162 29.2329C26.4976 29.3095 26.6921 29.349 26.8885 29.349C27.0849 29.349 27.2794 29.3095 27.4609 29.2329C27.6423 29.1562 27.8072 29.0438 27.9461 28.9022C28.0849 28.7605 28.1951 28.5923 28.2702 28.4073C28.3454 28.2222 28.3841 28.0238 28.3841 27.8235C28.3841 27.6231 28.3454 27.4248 28.2702 27.2397C28.1951 27.0546 28.0849 26.8864 27.9461 26.7448L21.6039 20.2771C21.582 20.2551 21.5596 20.2338 21.5366 20.2131ZM18.4335 6.2623C19.2775 7.10922 19.9486 8.1182 20.4084 9.23104C20.8681 10.3439 21.1073 11.5386 21.1121 12.7462C21.1169 13.9538 20.8873 15.1504 20.4365 16.267C19.9856 17.3836 19.3225 18.3981 18.4854 19.252C17.6482 20.106 16.6536 20.7823 15.5589 21.2422C14.4642 21.7021 13.2911 21.9363 12.1072 21.9314C10.9233 21.9265 9.75209 21.6825 8.6611 21.2136C7.57011 20.7446 6.58094 20.06 5.75064 19.1992C4.09135 17.4788 3.16571 15.1594 3.17535 12.7462C3.18498 10.3329 4.12911 8.02123 5.80207 6.31476C7.47504 4.60829 9.74129 3.64526 12.1072 3.63544C14.4731 3.62561 16.747 4.56978 18.4335 6.2623Z" fill="#171F25" />
</svg>
