<svg width="21" height="20" viewBox="0 0 22 21" fill="none" xmlns="http://www.w3.org/2000/svg">
  <path d="M14.8362 16.947L12.617 14.8273C11.7588 15.1202 10.8311 15.1744 9.94183 14.9837C9.05258 14.793 8.23835 14.3652 7.59388 13.75C6.94941 13.1348 6.50119 12.3576 6.30139 11.5088C6.10159 10.6599 6.15841 9.77439 6.46525 8.95519L3.63275 6.25144C1.28975 8.23987 0 10.5 0 10.5C0 10.5 4.125 17.7188 11 17.7188C12.3206 17.7144 13.6262 17.4517 14.8362 16.947V16.947ZM7.16375 4.053C8.37382 3.54825 9.67944 3.28559 11 3.28125C17.875 3.28125 22 10.5 22 10.5C22 10.5 20.7089 12.7588 18.3686 14.7499L15.5334 12.0435C15.8402 11.2243 15.897 10.3388 15.6972 9.48993C15.4974 8.6411 15.0492 7.86388 14.4047 7.2487C13.7603 6.63352 12.946 6.20568 12.0568 6.01496C11.1675 5.82424 10.2398 5.87848 9.38162 6.17138L7.16375 4.05431V4.053Z" fill="#B2B6B9" />
  <path d="M7.59718 10.0354C7.52155 10.5398 7.57002 11.0541 7.73875 11.5375C7.90749 12.0209 8.19186 12.4602 8.56932 12.8205C8.94678 13.1808 9.40697 13.4522 9.91341 13.6133C10.4198 13.7744 10.9586 13.8207 11.4871 13.7485L7.59581 10.0354H7.59718ZM14.4034 10.9646L10.5136 7.25027C11.042 7.17807 11.5808 7.22434 12.0872 7.38541C12.5936 7.54647 13.0538 7.81791 13.4313 8.17822C13.8088 8.53852 14.0931 8.97779 14.2619 9.46121C14.4306 9.94463 14.4791 10.4589 14.4034 10.9633V10.9646Z" fill="#B2B6B9" />
  <path fill-rule="evenodd" clip-rule="evenodd" d="M18.7632 18.8397L2.26318 3.08965L3.23668 2.1604L19.7367 17.9104L18.7632 18.8397Z" fill="#B2B6B9" />
</svg>
