<svg width="16" height="15" viewBox="0 0 20 19" fill="none" xmlns="http://www.w3.org/2000/svg">
  <path d="M12.22 14.0541L2.88 4.71409L1.12 3.00409L1 2.80409C0.689883 3.08141 0.440836 3.42021 0.268681 3.79895C0.096527 4.17769 0.00502897 4.58809 0 5.00409V13.0041C0 13.7997 0.316071 14.5628 0.87868 15.1254C1.44129 15.688 2.20435 16.0041 3 16.0041H12C12.5921 16.0051 13.1706 15.8274 13.66 15.4941L12.22 14.0541ZM19 4.15409C18.6962 4.01729 18.3588 3.97279 18.0299 4.02613C17.701 4.07947 17.395 4.22829 17.15 4.45409L15 6.45409V5.00409C15 4.20844 14.6839 3.44538 14.1213 2.88277C13.5587 2.32016 12.7956 2.00409 12 2.00409H5.83L7.12 3.29409L13.71 9.88409L15.71 11.8841L17.71 13.8841C17.9019 13.956 18.1051 13.9933 18.31 13.9941C18.548 13.9935 18.7832 13.9424 19 13.8441C19.2949 13.7248 19.5476 13.5202 19.7257 13.2566C19.9039 12.993 19.9994 12.6823 20 12.3641V5.63409C19.9994 5.31593 19.9039 5.00519 19.7257 4.74156C19.5476 4.47794 19.2949 4.2734 19 4.15409ZM15 12.5941L13 10.5941L6.41 4.00409L4.41 2.00409L2.71 0.294092C2.61676 0.200853 2.50607 0.126892 2.38425 0.076432C2.26243 0.0259717 2.13186 0 2 0C1.86814 0 1.73757 0.0259717 1.61575 0.076432C1.49393 0.126892 1.38324 0.200853 1.29 0.294092C1.1017 0.482395 0.995908 0.73779 0.995908 1.00409C0.995908 1.27039 1.1017 1.52579 1.29 1.71409L1.83 2.24409L3.59 4.00409L12.93 13.3441L14.39 14.8041L17.29 17.7141C17.383 17.8078 17.4936 17.8822 17.6154 17.933C17.7373 17.9838 17.868 18.0099 18 18.0099C18.132 18.0099 18.2627 17.9838 18.3846 17.933C18.5064 17.8822 18.617 17.8078 18.71 17.7141C18.8037 17.6211 18.8781 17.5105 18.9289 17.3887C18.9797 17.2668 19.0058 17.1361 19.0058 17.0041C19.0058 16.8721 18.9797 16.7414 18.9289 16.6195C18.8781 16.4977 18.8037 16.3871 18.71 16.2941L15 12.5941Z" fill="white" />
</svg>
