<svg width="54" height="50" viewBox="0 0 64 60" fill="none" xmlns="http://www.w3.org/2000/svg">
  <path d="M62.9019 21.9502C63.9198 25.5384 64.2093 29.1488 63.8563 32.6413C63.4668 36.4927 62.2963 40.2006 60.4588 43.5776C58.5625 47.0637 49.5744 48.4553 46.383 51.03C42.8728 53.8619 45.0365 57.7591 40.2802 58.963C36.8474 59.8319 33.3953 60.1386 30.0335 59.9435C24.8497 59.643 19.8799 58.1478 15.5257 55.6778C11.7896 53.5581 12.6921 46.6552 10.1159 43.2379C7.96142 40.3799 2.11582 41.1819 1.09806 37.5937C0.0802517 34.0055 -0.209315 30.395 0.143761 26.9024C0.47754 23.6007 1.38565 20.4042 2.79574 17.4312C4.6509 13.52 7.37492 9.99564 10.8032 7.12757C14.3977 4.1204 26.6678 11.3889 31.621 10.1351C36.3774 8.93126 33.2694 -0.748248 37.8084 0.0462957C42.5047 0.868401 46.9294 2.6752 50.7597 5.29093C53.5542 7.19956 56.0326 9.5389 58.0692 12.2407C60.224 15.0986 61.884 18.3621 62.9019 21.9502Z" fill="url(#paint0_linear)" />
  <defs>
    <linearGradient id="paint0_linear" x1="24.4584" y1="3.18472" x2="38.6792" y2="59.3682" gradientUnits="userSpaceOnUse">
      <stop stop-color="#2EDBB7" />
      <stop offset="1" stop-color="#11B18F" />
    </linearGradient>
  </defs>
</svg>
