<svg width="26" height="28" viewBox="0 0 35 37" fill="none" xmlns="http://www.w3.org/2000/svg">
  <path d="M29.0421 25.5109C28.2783 25.5138 27.523 25.6731 26.8215 25.9791C26.12 26.2851 25.4868 26.7316 24.9598 27.2917L11.1365 20.2833C11.4766 19.2387 11.4766 18.111 11.1365 17.0664L24.9825 9.9316C25.9742 10.9905 27.3191 11.6379 28.7558 11.7481C30.1924 11.8583 31.6182 11.4233 32.756 10.5278C33.8937 9.63221 34.6622 8.34004 34.912 6.9024C35.1619 5.46477 34.8752 3.98438 34.1077 2.74898C33.3402 1.51357 32.1468 0.611413 30.7594 0.217844C29.372 -0.175725 27.8897 -0.0325839 26.6006 0.619445C25.3116 1.27147 24.3078 2.38581 23.7845 3.74586C23.2612 5.10591 23.2557 6.61452 23.7691 7.97845L10.0593 15.0443C9.31883 14.1268 8.31645 13.4638 7.18952 13.1462C6.06259 12.8285 4.86628 12.8718 3.76458 13.2701C2.66288 13.6683 1.70971 14.4021 1.03575 15.3707C0.36178 16.3393 0 17.4954 0 18.6806C0 19.8657 0.36178 21.0218 1.03575 21.9905C1.70971 22.9591 2.66288 23.6928 3.76458 24.0911C4.86628 24.4893 6.06259 24.5326 7.18952 24.215C8.31645 23.8973 9.31883 23.2344 10.0593 22.3169L23.7351 29.2908C23.504 29.9194 23.385 30.5846 23.3835 31.2554C23.3835 32.3916 23.7161 33.5023 24.3391 34.4469C24.9621 35.3916 25.8476 36.1279 26.8837 36.5627C27.9197 36.9975 29.0597 37.1113 30.1596 36.8896C31.2594 36.668 32.2697 36.1208 33.0627 35.3175C33.8556 34.5141 34.3956 33.4905 34.6144 32.3761C34.8332 31.2618 34.7209 30.1068 34.2918 29.0571C33.8626 28.0074 33.1359 27.1102 32.2035 26.479C31.2711 25.8478 30.1748 25.5109 29.0534 25.5109H29.0421Z" fill="white" />
</svg>
