<svg width="54" height="49" viewBox="0 0 75 69" fill="none" xmlns="http://www.w3.org/2000/svg">
  <path d="M73.7234 25.669C74.9068 29.8627 75.2433 34.0824 74.8329 38.1643C74.3802 42.6657 63.4535 43.7998 61.3174 47.7467C59.1128 51.8211 58.2294 56.6471 54.5193 59.6562C50.4385 62.9661 52.9539 67.521 47.4244 68.928C43.4336 69.9436 43.9618 59.8843 40.0535 59.6562C34.0271 59.305 29.2742 57.4404 24.2122 54.5536C19.8688 52.0762 15.3517 54.5432 12.3567 50.5492C9.85202 47.2089 3.05618 48.1462 1.87297 43.9525C0.689717 39.7587 -0.317134 29.7509 0.0933369 25.669C0.481374 21.81 9.58611 12.8124 11.2254 9.33769C13.3822 4.76636 13.7333 4.91073 17.7188 1.55864C21.8977 -1.95601 34.2951 10.803 40.0535 9.33769C45.5831 7.93064 39.274 -0.860094 44.5508 0.0685373C50.0105 1.02938 50.0664 3.36323 54.5193 6.42039C57.7681 8.65112 65.7374 11.1631 68.1051 14.3208C70.6102 17.6611 72.54 21.4753 73.7234 25.669Z" fill="url(#paint0_linear)" />
  <defs>
    <linearGradient id="paint0_linear" x1="27.2505" y1="5.47014" x2="43.9491" y2="71.0928" gradientUnits="userSpaceOnUse">
      <stop stop-color="#70D8F9" />
      <stop offset="1" stop-color="#257E9A" />
    </linearGradient>
  </defs>
</svg>
